<?xml version="1.0" encoding="UTF-8" standalone="no"?>
<svg
   xmlns:dc="http://purl.org/dc/elements/1.1/"
   xmlns:cc="http://creativecommons.org/ns#"
   xmlns:rdf="http://www.w3.org/1999/02/22-rdf-syntax-ns#"
   xmlns:svg="http://www.w3.org/2000/svg"
   xmlns="http://www.w3.org/2000/svg"
   viewBox="0 0 302.29999 170.00667"
   height="170.00667"
   width="302.29999"
   xml:space="preserve"
   id="svg2"
   version="1.1"><metadata
     id="metadata8"><rdf:RDF><cc:Work
         rdf:about=""><dc:format>image/svg+xml</dc:format><dc:type
           rdf:resource="http://purl.org/dc/dcmitype/StillImage" /></cc:Work></rdf:RDF></metadata><defs
     id="defs6"><clipPath
       id="clipPath30"
       clipPathUnits="userSpaceOnUse"><path
         id="path28"
         d="M 0,127.505 H 226.725 V 0 H 0 Z" /></clipPath></defs><g
     transform="matrix(1.3333333,0,0,-1.3333333,0,170.00667)"
     id="g10"><g
       transform="translate(0,126.0603)"
       id="g12"><path
         id="path14"
         style="fill:#ffffff;fill-opacity:1;fill-rule:nonzero;stroke:none"
         d="m 0,0 v -70.503 l 19.336,6.429 0.216,0.072 -0.361,32.046 -0.003,0.247 5.914,-8.021 13.248,-17.974 0.331,0.112 19.307,6.515 L 17.563,0 Z" /></g><g
       transform="translate(0,41.9751)"
       id="g16"><path
         id="path18"
         style="fill:#ffffff;fill-opacity:1;fill-rule:nonzero;stroke:none"
         d="M 0,0 H 19.454 L 19.453,0.347 0,6.427 Z" /></g><g
       transform="translate(50.5031,52.9201)"
       id="g20"><path
         id="path22"
         style="fill:#ffffff;fill-opacity:1;fill-rule:nonzero;stroke:none"
         d="M 0,0 8.32,-10.945 H 27.087 V 73.141 H 8.32 V 22.344 l 10.127,3.417 z" /></g><g
       id="g24"><g
         clip-path="url(#clipPath30)"
         id="g26"><g
           transform="translate(217.8332,101.6428)"
           id="g32"><path
             id="path34"
             style="fill:#ffffff;fill-opacity:1;fill-rule:nonzero;stroke:none"
             d="m 0,0 c 0,17.852 -14.917,25.722 -28.659,25.722 -14.747,0 -23.065,-8.237 -26.917,-13.594 l 13.374,-13.376 c 1.602,2.489 5.623,7.59 11.664,7.59 4.345,0 9.044,-2.466 9.044,-8.339 0,-12.098 -36.293,-17.618 -36.293,-48.626 0,-2.819 0.352,-5.756 0.939,-9.045 h 15.177 7.257 16.595 l 17.618,17.62 H -34.414 C -33.826,-31.243 0,-26.193 0,0" /></g><g
           transform="translate(220.5368,44.4069)"
           id="g36"><path
             id="path38"
             style="fill:#ffffff;fill-opacity:1;fill-rule:nonzero;stroke:none"
             d="M 0,0 C 0,1.605 1.213,2.83 2.762,2.83 4.298,2.83 5.509,1.605 5.509,0 5.509,-1.634 4.298,-2.84 2.762,-2.84 1.213,-2.84 0,-1.634 0,0 m 2.762,-3.403 c 1.85,0 3.426,1.444 3.426,3.403 0,1.949 -1.576,3.386 -3.426,3.386 -1.866,0 -3.448,-1.437 -3.448,-3.386 0,-1.959 1.582,-3.403 3.448,-3.403 M 2.044,-0.27 H 2.725 L 3.75,-1.959 H 4.424 L 3.3,-0.237 c 0.581,0.065 1.024,0.375 1.024,1.076 0,0.766 -0.458,1.11 -1.38,1.11 H 1.453 v -3.908 h 0.591 z m 0,0.505 V 1.449 H 2.85 c 0.412,0 0.848,-0.09 0.848,-0.57 0,-0.614 -0.445,-0.644 -0.942,-0.644 z" /></g><path
           id="path40"
           style="fill:#ffffff;fill-opacity:1;fill-rule:nonzero;stroke:none"
           d="m 0,24.735 h 226.725 v 2.081 H 0 Z" /><g
           transform="translate(40.218,10.5427)"
           id="g42"><path
             id="path44"
             style="fill:#ffffff;fill-opacity:1;fill-rule:nonzero;stroke:none"
             d="M 0,0 H 1.427 V -6.391 H 0 l -3.044,4.005 V -6.391 H -4.47 V 0 h 1.334 L 0,-4.114 Z" /></g><g
           transform="translate(49.653,4.152)"
           id="g46"><path
             id="path48"
             style="fill:#ffffff;fill-opacity:1;fill-rule:nonzero;stroke:none"
             d="M 0,0 -0.594,1.381 H -3.273 L -3.868,0 h -1.517 l 2.762,6.391 h 1.38 L 1.519,0 Z M -1.929,4.49 -2.733,2.633 h 1.599 z" /></g><g
           transform="translate(55.8996,9.3078)"
           id="g50"><path
             id="path52"
             style="fill:#ffffff;fill-opacity:1;fill-rule:nonzero;stroke:none"
             d="M 0,0 V -5.156 H -1.425 V 0 H -3.236 V 1.235 H 1.811 V 0 Z" /></g><path
           id="path54"
           style="fill:#ffffff;fill-opacity:1;fill-rule:nonzero;stroke:none"
           d="m 60.498,10.543 h 1.426 V 4.152 h -1.426 z" /><g
           transform="translate(70.7258,5.0344)"
           id="g56"><path
             id="path58"
             style="fill:#ffffff;fill-opacity:1;fill-rule:nonzero;stroke:none"
             d="m 0,0 c -0.646,-0.632 -1.441,-0.946 -2.386,-0.946 -0.945,0 -1.74,0.314 -2.386,0.946 -0.646,0.63 -0.97,1.415 -0.97,2.354 0,0.939 0.324,1.724 0.97,2.354 0.646,0.632 1.441,0.946 2.386,0.946 C -1.441,5.654 -0.646,5.34 0,4.708 0.647,4.078 0.97,3.293 0.97,2.354 0.97,1.415 0.647,0.63 0,0 m -0.484,2.351 c 0,0.567 -0.183,1.055 -0.548,1.457 -0.367,0.402 -0.816,0.603 -1.349,0.603 -0.534,0 -0.983,-0.201 -1.348,-0.603 -0.367,-0.402 -0.549,-0.89 -0.549,-1.457 0,-0.571 0.182,-1.056 0.549,-1.455 0.365,-0.4 0.814,-0.599 1.348,-0.599 0.533,0 0.982,0.199 1.349,0.599 0.365,0.399 0.548,0.884 0.548,1.455" /></g><g
           transform="translate(79.2126,10.5427)"
           id="g60"><path
             id="path62"
             style="fill:#ffffff;fill-opacity:1;fill-rule:nonzero;stroke:none"
             d="M 0,0 H 1.426 V -6.391 H 0 l -3.044,4.005 V -6.391 H -4.471 V 0 h 1.335 L 0,-4.114 Z" /></g><g
           transform="translate(88.6467,4.152)"
           id="g64"><path
             id="path66"
             style="fill:#ffffff;fill-opacity:1;fill-rule:nonzero;stroke:none"
             d="M 0,0 -0.594,1.381 H -3.273 L -3.868,0 h -1.517 l 2.762,6.391 h 1.38 L 1.519,0 Z M -1.929,4.49 -2.733,2.633 h 1.599 z" /></g><g
           transform="translate(92.7888,4.152)"
           id="g68"><path
             id="path70"
             style="fill:#ffffff;fill-opacity:1;fill-rule:nonzero;stroke:none"
             d="M 0,0 V 6.391 H 1.427 V 1.271 H 4.151 V 0 Z" /></g><g
           transform="translate(105.3103,9.2673)"
           id="g72"><path
             id="path74"
             style="fill:#ffffff;fill-opacity:1;fill-rule:nonzero;stroke:none"
             d="m 0,0 c -0.138,-0.112 -0.206,-0.262 -0.206,-0.448 0,-0.185 0.083,-0.333 0.251,-0.443 C 0.213,-1.001 0.6,-1.131 1.207,-1.28 1.812,-1.43 2.284,-1.653 2.619,-1.952 2.954,-2.25 3.122,-2.687 3.122,-3.26 3.122,-3.831 2.907,-4.297 2.478,-4.653 2.047,-5.01 1.482,-5.188 0.781,-5.188 c -1.011,0 -1.923,0.375 -2.733,1.125 l 0.85,1.042 c 0.688,-0.603 1.326,-0.905 1.91,-0.905 0.262,0 0.468,0.055 0.618,0.169 0.149,0.112 0.224,0.265 0.224,0.457 0,0.192 -0.079,0.344 -0.238,0.457 -0.159,0.113 -0.473,0.227 -0.942,0.343 -0.743,0.177 -1.287,0.407 -1.632,0.689 -0.344,0.284 -0.516,0.729 -0.516,1.335 0,0.607 0.218,1.075 0.654,1.404 0.436,0.329 0.979,0.493 1.631,0.493 0.427,0 0.854,-0.072 1.279,-0.219 C 2.314,1.056 2.687,0.849 3.003,0.581 L 2.281,-0.461 C 1.726,-0.042 1.153,0.169 0.562,0.169 0.324,0.169 0.137,0.114 0,0" /></g><g
           transform="translate(116.1223,10.5427)"
           id="g76"><path
             id="path78"
             style="fill:#ffffff;fill-opacity:1;fill-rule:nonzero;stroke:none"
             d="m 0,0 v -1.271 h -3.182 v -1.317 h 2.861 v -1.216 h -2.861 v -1.325 h 3.283 v -1.262 h -4.71 V 0 Z" /></g><g
           transform="translate(122.216,5.4142)"
           id="g80"><path
             id="path82"
             style="fill:#ffffff;fill-opacity:1;fill-rule:nonzero;stroke:none"
             d="m 0,0 c 0.702,0 1.275,0.277 1.719,0.832 l 0.914,-0.941 c -0.726,-0.818 -1.58,-1.226 -2.565,-1.226 -0.984,0 -1.794,0.311 -2.431,0.932 -0.638,0.622 -0.955,1.407 -0.955,2.355 0,0.947 0.324,1.738 0.973,2.371 0.649,0.635 1.443,0.951 2.382,0.951 1.048,0 1.925,-0.398 2.632,-1.197 L 1.784,3.072 C 1.332,3.631 0.771,3.913 0.101,3.913 -0.436,3.913 -0.894,3.738 -1.277,3.387 -1.656,3.036 -1.846,2.564 -1.846,1.971 -1.846,1.375 -1.667,0.898 -1.307,0.539 -0.948,0.179 -0.512,0 0,0" /></g><g
           transform="translate(129.4318,5.8024)"
           id="g84"><path
             id="path86"
             style="fill:#ffffff;fill-opacity:1;fill-rule:nonzero;stroke:none"
             d="m 0,0 c 0.238,-0.295 0.558,-0.443 0.959,-0.443 0.404,0 0.722,0.148 0.956,0.443 0.235,0.295 0.353,0.699 0.353,1.211 v 3.53 H 3.693 V 1.166 C 3.693,0.239 3.438,-0.473 2.926,-0.97 2.413,-1.466 1.758,-1.714 0.959,-1.714 c -0.797,0 -1.454,0.25 -1.969,0.749 -0.515,0.501 -0.772,1.21 -0.772,2.131 v 3.575 h 1.425 V 1.211 C -0.357,0.699 -0.238,0.295 0,0" /></g><g
           transform="translate(141.6603,8.4225)"
           id="g88"><path
             id="path90"
             style="fill:#ffffff;fill-opacity:1;fill-rule:nonzero;stroke:none"
             d="m 0,0 c 0,-1.025 -0.406,-1.686 -1.216,-1.985 l 1.619,-2.286 h -1.757 l -1.417,2.039 h -0.986 v -2.039 h -1.426 v 6.392 h 2.423 c 0.992,0 1.701,-0.168 2.125,-0.504 C -0.213,1.282 0,0.743 0,0 m -1.719,-0.76 c 0.177,0.159 0.265,0.41 0.265,0.755 0,0.344 -0.091,0.58 -0.275,0.707 -0.181,0.129 -0.502,0.193 -0.959,0.193 h -1.069 v -1.892 h 1.042 c 0.487,0 0.819,0.079 0.996,0.237" /></g><path
           id="path92"
           style="fill:#ffffff;fill-opacity:1;fill-rule:nonzero;stroke:none"
           d="m 144.922,10.543 h 1.426 V 4.152 h -1.426 z" /><g
           transform="translate(152.3732,9.3078)"
           id="g94"><path
             id="path96"
             style="fill:#ffffff;fill-opacity:1;fill-rule:nonzero;stroke:none"
             d="M 0,0 V -5.156 H -1.427 V 0 H -3.236 V 1.235 H 1.809 L 1.809,0 Z" /></g><g
           transform="translate(160.1408,4.152)"
           id="g98"><path
             id="path100"
             style="fill:#ffffff;fill-opacity:1;fill-rule:nonzero;stroke:none"
             d="m 0,0 h -1.427 v 2.523 l -2.212,3.868 h 1.545 l 1.38,-2.376 1.382,2.376 H 2.212 L 0,2.523 Z" /></g><g
           transform="translate(170.3664,9.2673)"
           id="g102"><path
             id="path104"
             style="fill:#ffffff;fill-opacity:1;fill-rule:nonzero;stroke:none"
             d="m 0,0 c -0.137,-0.112 -0.206,-0.262 -0.206,-0.448 0,-0.185 0.084,-0.333 0.251,-0.443 0.168,-0.11 0.556,-0.24 1.161,-0.389 0.606,-0.15 1.078,-0.373 1.413,-0.672 0.335,-0.298 0.503,-0.735 0.503,-1.308 0,-0.571 -0.216,-1.037 -0.644,-1.393 -0.43,-0.357 -0.995,-0.535 -1.698,-0.535 -1.011,0 -1.922,0.375 -2.732,1.125 l 0.85,1.042 c 0.689,-0.603 1.326,-0.905 1.911,-0.905 0.262,0 0.468,0.055 0.617,0.169 0.149,0.112 0.223,0.265 0.223,0.457 0,0.192 -0.078,0.344 -0.237,0.457 -0.158,0.113 -0.473,0.227 -0.942,0.343 -0.743,0.177 -1.287,0.407 -1.631,0.689 -0.345,0.284 -0.516,0.729 -0.516,1.335 0,0.607 0.217,1.075 0.653,1.404 0.436,0.329 0.979,0.493 1.63,0.493 0.428,0 0.855,-0.072 1.282,-0.219 C 2.314,1.056 2.686,0.849 3.003,0.581 L 2.281,-0.461 C 1.726,-0.042 1.153,0.169 0.562,0.169 0.325,0.169 0.137,0.114 0,0" /></g><g
           transform="translate(181.1784,10.5427)"
           id="g106"><path
             id="path108"
             style="fill:#ffffff;fill-opacity:1;fill-rule:nonzero;stroke:none"
             d="M 0,0 V -1.271 H -3.182 V -2.588 H -0.32 V -3.804 H -3.182 V -5.129 H 0.101 V -6.391 H -4.607 V 0 Z" /></g><g
           transform="translate(189.632,8.4225)"
           id="g110"><path
             id="path112"
             style="fill:#ffffff;fill-opacity:1;fill-rule:nonzero;stroke:none"
             d="m 0,0 c 0,-1.025 -0.406,-1.686 -1.215,-1.985 l 1.618,-2.286 h -1.756 l -1.417,2.039 h -0.987 v -2.039 h -1.426 v 6.392 h 2.422 c 0.994,0 1.702,-0.168 2.126,-0.504 C -0.211,1.282 0,0.743 0,0 m -1.718,-0.76 c 0.177,0.159 0.265,0.41 0.265,0.755 0,0.344 -0.091,0.58 -0.274,0.707 -0.184,0.129 -0.504,0.193 -0.961,0.193 h -1.069 v -1.892 h 1.042 c 0.487,0 0.82,0.079 0.997,0.237" /></g><g
           transform="translate(195.1247,6.4748)"
           id="g114"><path
             id="path116"
             style="fill:#ffffff;fill-opacity:1;fill-rule:nonzero;stroke:none"
             d="M 0,0 1.628,4.068 H 3.173 L 0.604,-2.323 h -1.207 l -2.569,6.391 h 1.547 z" /></g><path
           id="path118"
           style="fill:#ffffff;fill-opacity:1;fill-rule:nonzero;stroke:none"
           d="m 200.934,10.543 h 1.427 V 4.152 h -1.427 z" /><g
           transform="translate(208.7482,5.4142)"
           id="g120"><path
             id="path122"
             style="fill:#ffffff;fill-opacity:1;fill-rule:nonzero;stroke:none"
             d="m 0,0 c 0.702,0 1.274,0.277 1.718,0.832 l 0.915,-0.941 c -0.726,-0.818 -1.58,-1.226 -2.565,-1.226 -0.984,0 -1.794,0.311 -2.431,0.932 -0.639,0.622 -0.955,1.407 -0.955,2.355 0,0.947 0.323,1.738 0.973,2.371 0.649,0.635 1.443,0.951 2.382,0.951 1.047,0 1.925,-0.398 2.632,-1.197 L 1.783,3.072 C 1.331,3.631 0.77,3.913 0.101,3.913 -0.436,3.913 -0.894,3.738 -1.275,3.387 -1.658,3.036 -1.847,2.564 -1.847,1.971 -1.847,1.375 -1.668,0.898 -1.308,0.539 -0.948,0.179 -0.512,0 0,0" /></g><g
           transform="translate(218.8835,10.5427)"
           id="g124"><path
             id="path126"
             style="fill:#ffffff;fill-opacity:1;fill-rule:nonzero;stroke:none"
             d="m 0,0 v -1.271 h -3.181 v -1.317 h 2.862 V -3.804 H -3.181 V -5.129 H 0.102 V -6.391 H -4.606 V 0 Z" /></g><g
           transform="translate(223.6008,9.2673)"
           id="g128"><path
             id="path130"
             style="fill:#ffffff;fill-opacity:1;fill-rule:nonzero;stroke:none"
             d="m 0,0 c -0.137,-0.112 -0.207,-0.262 -0.207,-0.448 0,-0.185 0.084,-0.333 0.253,-0.443 0.167,-0.11 0.554,-0.24 1.16,-0.389 0.606,-0.15 1.078,-0.373 1.413,-0.672 0.335,-0.298 0.503,-0.735 0.503,-1.308 0,-0.571 -0.215,-1.037 -0.644,-1.393 -0.431,-0.357 -0.997,-0.535 -1.697,-0.535 -1.012,0 -1.923,0.375 -2.733,1.125 l 0.85,1.042 c 0.689,-0.603 1.326,-0.905 1.911,-0.905 0.262,0 0.468,0.055 0.616,0.169 0.15,0.112 0.225,0.265 0.225,0.457 0,0.192 -0.08,0.344 -0.238,0.457 -0.158,0.113 -0.473,0.227 -0.942,0.343 -0.744,0.177 -1.287,0.407 -1.633,0.689 -0.343,0.284 -0.514,0.729 -0.514,1.335 0,0.607 0.217,1.075 0.653,1.404 0.436,0.329 0.979,0.493 1.631,0.493 0.427,0 0.854,-0.072 1.281,-0.219 C 2.314,1.056 2.686,0.849 3.003,0.581 L 2.281,-0.461 C 1.726,-0.042 1.153,0.169 0.562,0.169 0.325,0.169 0.137,0.114 0,0" /></g><g
           transform="translate(10.632,8.8781)"
           id="g132"><path
             id="path134"
             style="fill:#ffffff;fill-opacity:1;fill-rule:evenodd;stroke:none"
             d="m 0,0 -0.907,-2.861 c 0.27,-0.102 0.582,-0.16 0.918,-0.16 0.323,0 0.629,0.057 0.898,0.15 L 0.017,0 Z" /></g><g
           transform="translate(17.4245,9.8073)"
           id="g136"><path
             id="path138"
             style="fill:#ffffff;fill-opacity:1;fill-rule:evenodd;stroke:none"
             d="M 0,0 H -0.63 V -2.306 H 0 c 0.842,0 1.512,0.279 1.512,1.167 C 1.512,-0.28 0.842,0 0,0" /></g><g
           transform="translate(0.0012,14.383)"
           id="g140"><path
             id="path142"
             style="fill:#ffffff;fill-opacity:1;fill-rule:evenodd;stroke:none"
             d="M 0,0 V -14.383 H 14.694 L 29.077,0 Z m 17.717,-8.85 h -0.924 v -2.748 h -4.24 l -0.42,1.314 c -0.449,-0.146 -0.956,-0.229 -1.491,-0.229 -0.554,0 -1.074,0.085 -1.53,0.242 L 8.676,-11.598 H 6.077 l 0.286,0.767 c -0.034,-0.03 -0.067,-0.063 -0.104,-0.091 -0.648,-0.52 -1.459,-0.806 -2.464,-0.825 l -0.148,-0.002 c -1.154,0 -2.284,0.319 -3.24,0.863 l 0.884,1.755 c 0.959,-0.565 1.559,-0.692 2.371,-0.676 0.419,0.007 0.724,0.085 0.921,0.29 0.121,0.125 0.184,0.28 0.189,0.445 0.008,0.458 -0.642,0.672 -1.437,0.918 -0.642,0.2 -1.375,0.469 -1.945,0.89 -0.678,0.497 -0.999,1.12 -0.983,1.999 0.011,0.639 0.246,1.215 0.685,1.669 0.63,0.649 1.644,1.046 2.863,1.046 H 3.961 C 5.006,-2.551 6.28,-2.849 7.204,-3.317 L 6.208,-5.049 C 5.196,-4.563 4.689,-4.517 4.114,-4.486 3.257,-4.438 2.824,-4.746 2.817,-5.077 2.809,-5.479 3.628,-5.844 4.4,-6.09 5.568,-6.463 7.052,-6.958 7.279,-8.392 l 2.136,5.69 h 2.48 l 2.498,-6.806 v 6.806 l 2.863,-0.002 c 2.735,0 4.02,-0.976 4.02,-3.1 0,-1.907 -1.322,-3.046 -3.559,-3.046" /></g><g
           transform="translate(18.1814,0.9323)"
           id="g144"><path
             id="path146"
             style="fill:#ffffff;fill-opacity:1;fill-rule:nonzero;stroke:none"
             d="M 0,0 C 0,0.44 0.332,0.776 0.757,0.776 1.178,0.776 1.51,0.44 1.51,0 1.51,-0.447 1.178,-0.778 0.757,-0.778 0.332,-0.778 0,-0.447 0,0 m 0.757,-0.932 c 0.507,0 0.939,0.395 0.939,0.932 0,0.535 -0.432,0.928 -0.939,0.928 -0.512,0 -0.945,-0.393 -0.945,-0.928 0,-0.537 0.433,-0.932 0.945,-0.932 M 0.56,-0.074 h 0.187 l 0.281,-0.463 h 0.184 l -0.308,0.473 c 0.159,0.016 0.281,0.103 0.281,0.294 0,0.21 -0.125,0.305 -0.378,0.305 H 0.398 V -0.537 H 0.56 Z m 0,0.138 v 0.333 h 0.221 c 0.113,0 0.234,-0.023 0.234,-0.156 0,-0.168 -0.124,-0.177 -0.26,-0.177 z" /></g><g
           transform="translate(145.903,83.1159)"
           id="g148"><path
             id="path150"
             style="fill:#ffffff;fill-opacity:1;fill-rule:nonzero;stroke:none"
             d="m 0,0 c 4.41,-3.927 6.615,-9.665 6.615,-17.202 0,-7.539 -2.827,-13.653 -8.48,-18.345 -5.654,-4.691 -13.093,-7.037 -22.316,-7.037 -13.311,0 -25.301,4.933 -35.966,14.796 l 11.186,13.714 c 9.063,-7.94 17.443,-11.909 25.142,-11.909 3.448,0 6.154,0.74 8.12,2.225 1.964,1.483 2.947,3.488 2.947,6.014 0,2.527 -1.043,4.531 -3.128,6.015 -2.087,1.483 -6.215,2.987 -12.39,4.511 -9.785,2.326 -16.942,5.354 -21.472,9.083 -4.531,3.729 -6.796,9.582 -6.796,17.563 0,7.979 2.865,14.134 8.6,18.465 5.734,4.33 12.89,6.496 21.472,6.496 5.613,0 11.227,-0.963 16.842,-2.888 5.613,-1.925 10.504,-4.652 14.676,-8.18 L -4.451,19.608 c -7.299,5.534 -14.838,8.3 -22.615,8.3 -3.128,0 -5.594,-0.742 -7.398,-2.225 -1.806,-1.485 -2.707,-3.449 -2.707,-5.895 0,-2.447 1.101,-4.39 3.308,-5.834 2.205,-1.444 7.297,-3.148 15.277,-5.112 C -10.606,6.875 -4.412,3.929 0,0" /></g></g></g></g></svg>